/* XPM */
static char * bitdust_xpm[] = {
"128 128 10 1",
" 	c None",
".	c #FF0000",
"+	c #0094FF",
"@	c #0093FF",
"#	c #008EFF",
"$	c #008DFF",
"%	c #0095FF",
"&	c #008FFF",
"*	c #FF0200",
"=	c #008CFF",
"                                                                                                                                ",
"                                                                                                                                ",
"                                                                                                                                ",
"                                                                                                                                ",
"                                                                                                                                ",
"                                                                                                                                ",
"                                                                                                                                ",
"                                                                                                                                ",
"                                                                   ...                      ............................        ",
"                                                                 ......                     ............................        ",
"                                                               ........                     ............................        ",
"                                                             ...........                    ............................        ",
"                                                          ..............                    ............................        ",
"                                                        .................                   ............................        ",
"                                                      ...................                   ............................        ",
"                                                    ......................                  ............................        ",
"                                                 .........................                  ............................        ",
"                                               ...........................                  ............................        ",
"                                             ..............................                 ............................        ",
"        +++++++++@#$$$#@++++++++++++        ...............................                 ............................        ",
"        %%%%%%%%%&&&&&%%%%%%%%%%%%%%         ...............................                ............................        ",
"        %%%%%%%%%%%%%%%%%%%%%%%%%%%%         ...............................                ............................        ",
"        %%%%%%%%%%%%%%%%%%%%%%%%%%%&         ................................               ............................        ",
"        %%%%%%%%%%%%%%%%%%%%%%%%%%%&          ...............................               ............................        ",
"        %%%%%%%%%%%%%%%%%%%%%%%%%%%&          ................................              ............................        ",
"        %%%%%%%%%%%%%%%%%%%%%%%%%%%&           ...............................              ............................        ",
"        %%%%%%%%%%%%%%%%%%%%%%%%%%%&           ...............................              ............................        ",
"        %%%%%%%%%%%%%%%%%%%%%%%%%%%%            ...............................             ............................        ",
"        %%%%%%%%%%%%%%%%%%%%%%%%%%%%            ...............................             ............................        ",
"        @%%%%%%%%%%%%%%%%%%%%%%%%%%%             ...............................            ............................        ",
"        @%%%%%%%%%%%%%%%%%%%%%%%%%%%             ...............................            ............................        ",
"        @%%%%%%%%%%%%%%%%%%%%%%%%%%%             *...............................           ............................        ",
"        @%%%%%%%%%%%%%%%%%%%%%%%%%%%              ...............................           ............................        ",
"        @%%%%%%%%%%%%%%%%%%%%%%%%%%%              ...............................           ............................        ",
"        %%%%%%%%%%%%%%%%%%%%%%%%%%%%               ............................             ............................        ",
"        %%%%%%%%%%%%%%%%%%%%%%%%%%%%               ..........................               ............................        ",
"        %%%%%%%%%%%%%%%%%%%%%%%%%%%%                ......................                  ............................        ",
"        %%%%%%%%%%%%%%%%%%%%%%%%%%%%                ....................                                                        ",
"        %%%%%%%%%%%%%%%%%%%%%%%%%%%%                 .................                                                          ",
"        %%%%%%%%%%%%%%%%%%%%%%%%%%%%                 ...............                                                            ",
"        %%%%%%%%%%%%%%%%%%%%%%%%%%%%                 ............                                                               ",
"        %%%%%%%%%%%%%%%%%%%%%%%%%%%%                  .........                                                                 ",
"        %%%%%%%%%%%%%%%%%%%%%%%%%%%&                  .......                                                                   ",
"        %%%%%%%%%%%%%%%%%%%%%%%%%%%&                   ....                                                                     ",
"        %%%%%%%%%%%%%%%%%%%%%%%%%%%&                   .                                                                        ",
"        %%%%%%%%%%%%%%%%%%%%%%%%%%%&                                                                                            ",
"        %%%%%%%%%%%%%%%%%%%%%%%%%%%&                                                          .                                 ",
"        +@=====@+++++++++++++@=====@                                                         ...                                ",
"                                                                                             .....                              ",
"                                                                                            .......                             ",
"                                                                                           ..........                           ",
"                                                                                           ...........                          ",
"                                                                                          ..............                        ",
"                                                                                         ................                       ",
"                                                                                         ..................                     ",
"                                                                                        ....................                    ",
"        %%%%%%%%%%%%%&&&&&%%%%%%%%%%        $&%%%%%%%%%%%%%%%&&&&&%%%%%%+              .......................                  ",
"        %%%%%%%%%%%%%%%%%%%%%%%%%%%%        #%%%%%%%%%%%%%%%%%%%%%%%%%%%+              ........................                 ",
"        %%%%%%%%%%%%%%%%%%%%%%%%%%%%        @%%%%%%%%%%%%%%%%%%%%%%%%%%%+             ...........................               ",
"        %%%%%%%%%%%%%%%%%%%%%%%%%%%%        +%%%%%%%%%%%%%%%%%%%%%%%%%%%+             ............................              ",
"        %%%%%%%%%%%%%%%%%%%%%%%%%%%%        +%%%%%%%%%%%%%%%%%%%%%%%%%%%+            ...............................            ",
"        %%%%%%%%%%%%%%%%%%%%%%%%%%%%        +%%%%%%%%%%%%%%%%%%%%%%%%%%%+           ..................................          ",
"        %%%%%%%%%%%%%%%%%%%%%%%%%%%&        +%%%%%%%%%%%%%%%%%%%%%%%%%%%+           ..................................          ",
"        %%%%%%%%%%%%%%%%%%%%%%%%%%%&        +%%%%%%%%%%%%%%%%%%%%%%%%%%%+          ..................................           ",
"        %%%%%%%%%%%%%%%%%%%%%%%%%%%&        +%%%%%%%%%%%%%%%%%%%%%%%%%%%@         ..................................            ",
"        %%%%%%%%%%%%%%%%%%%%%%%%%%%&        +%%%%%%%%%%%%%%%%%%%%%%%%%%%#         ..................................            ",
"        %%%%%%%%%%%%%%%%%%%%%%%%%%%&        +%%%%%%%%%%%%%%%%%%%%%%%%%%&$        ..................................             ",
"        %%%%%%%%%%%%%%%%%%%%%%%%%%%%        +%%%%%%%%%%%%%%%%%%%%%%%%%%&$       ..................................              ",
"        %%%%%%%%%%%%%%%%%%%%%%%%%%%%        +%%%%%%%%%%%%%%%%%%%%%%%%%%&$       ..................................              ",
"        @%%%%%%%%%%%%%%%%%%%%%%%%%%%        +%%%%%%%%%%%%%%%%%%%%%%%%%%&#      ..................................               ",
"        @%%%%%%%%%%%%%%%%%%%%%%%%%%%        +%%%%%%%%%%%%%%%%%%%%%%%%%%&@      .................................                ",
"        @%%%%%%%%%%%%%%%%%%%%%%%%%%%        +%%%%%%%%%%%%%%%%%%%%%%%%%%%+        ...............................                ",
"        @%%%%%%%%%%%%%%%%%%%%%%%%%%%        @%%%%%%%%%%%%%%%%%%%%%%%%%%%+         .............................                 ",
"        @%%%%%%%%%%%%%%%%%%%%%%%%%%%        #%%%%%%%%%%%%%%%%%%%%%%%%%%%+           ..........................                  ",
"        %%%%%%%%%%%%%%%%%%%%%%%%%%%%        $%%%%%%%%%%%%%%%%%%%%%%%%%%%+            .........................                  ",
"        %%%%%%%%%%%%%%%%%%%%%%%%%%%%        $%%%%%%%%%%%%%%%%%%%%%%%%%%%+              ......................                   ",
"        %%%%%%%%%%%%%%%%%%%%%%%%%%%%        $%%%%%%%%%%%%%%%%%%%%%%%%%%%+                ...................                    ",
"        %%%%%%%%%%%%%%%%%%%%%%%%%%%%        #%%%%%%%%%%%%%%%%%%%%%%%%%%%+                 ..................                    ",
"        %%%%%%%%%%%%%%%%%%%%%%%%%%%%        @%%%%%%%%%%%%%%%%%%%%%%%%%%%+                   ...............                     ",
"        %%%%%%%%%%%%%%%%%%%%%%%%%%%%        +%%%%%%%%%%%%%%%%%%%%%%%%%%%+                    .............                      ",
"        %%%%%%%%%%%%%%%%%%%%%%%%%%%%        +%%%%%%%%%%%%%%%%%%%%%%%%%%%+                      ...........                      ",
"        %%%%%%%%%%%%%%%%%%%%%%%%%%%%        +%%%%%%%%%%%%%%%%%%%%%%%%%%%+                       .........                       ",
"        %%%%%%%%%%%%%%%%%%%%%%%%%%%&        +%%%%%%%%%%%%%%%%%%%%%%%%%%%+                         ......                        ",
"        %%%%%%&&&&&%%%%%%%%%%%%%%%&&        +%%%%%%%%%&&&&&%%%%%%%%%%%%%+                          .....                        ",
"                                                                                                     ..                         ",
"                                                                                                                                ",
"                                                                                                                                ",
"                                                                                                                                ",
"                                                                                                                                ",
"                                                                                                                                ",
"                                                                                                                                ",
"                                                                                                                                ",
"        $$@+++++++++++++@=====@+++++         =====@+++++++++++++@=====@+         +++@=====@+++++++++++++@====                   ",
"        @%%%%%%%%%%%%%%%&&&&&%%%%%%%        #&&&&%%%%%%%%%%%%%%%&&&&&%%%+        %%%%%%%%%%%%%%%%%%%%%%%%%%%%@                  ",
"        %%%%%%%%%%%%%%%%%%%%%%%%%%%%        $&%%%%%%%%%%%%%%%%%%%%%%%%%%+        %%%%%%%%%%%%%%%%%%%%%%%%%%%%+                  ",
"        %%%%%%%%%%%%%%%%%%%%%%%%%%%%        $&%%%%%%%%%%%%%%%%%%%%%%%%%%+        %%%%%%%%%%%%%%%%%%%%%%%%%%%%+                  ",
"        %%%%%%%%%%%%%%%%%%%%%%%%%%%%        $&%%%%%%%%%%%%%%%%%%%%%%%%%%+        &%%%%%%%%%%%%%%%%%%%%%%%%%%%+                  ",
"        %%%%%%%%%%%%%%%%%%%%%%%%%%%%        #%%%%%%%%%%%%%%%%%%%%%%%%%%%+        &%%%%%%%%%%%%%%%%%%%%%%%%%%%+                  ",
"        %%%%%%%%%%%%%%%%%%%%%%%%%%%%        @%%%%%%%%%%%%%%%%%%%%%%%%%%%+        &%%%%%%%%%%%%%%%%%%%%%%%%%%%+                  ",
"        %%%%%%%%%%%%%%%%%%%%%%%%%%%%        +%%%%%%%%%%%%%%%%%%%%%%%%%%%+        &%%%%%%%%%%%%%%%%%%%%%%%%%%%+                  ",
"        %%%%%%%%%%%%%%%%%%%%%%%%%%%%        +%%%%%%%%%%%%%%%%%%%%%%%%%%%+        &%%%%%%%%%%%%%%%%%%%%%%%%%%%+                  ",
"        %%%%%%%%%%%%%%%%%%%%%%%%%%%%        +%%%%%%%%%%%%%%%%%%%%%%%%%%%+        %%%%%%%%%%%%%%%%%%%%%%%%%%%%+                  ",
"        %%%%%%%%%%%%%%%%%%%%%%%%%%%&        +%%%%%%%%%%%%%%%%%%%%%%%%%%%+        %%%%%%%%%%%%%%%%%%%%%%%%%%%%+                  ",
"        %%%%%%%%%%%%%%%%%%%%%%%%%%%&        +%%%%%%%%%%%%%%%%%%%%%%%%%%%+        %%%%%%%%%%%%%%%%%%%%%%%%%%%%+                  ",
"        %%%%%%%%%%%%%%%%%%%%%%%%%%%&        +%%%%%%%%%%%%%%%%%%%%%%%%%%%@        %%%%%%%%%%%%%%%%%%%%%%%%%%%%+                  ",
"        %%%%%%%%%%%%%%%%%%%%%%%%%%%&        +%%%%%%%%%%%%%%%%%%%%%%%%%%%#        %%%%%%%%%%%%%%%%%%%%%%%%%%%%+                  ",
"        %%%%%%%%%%%%%%%%%%%%%%%%%%%&        +%%%%%%%%%%%%%%%%%%%%%%%%%%%$        %%%%%%%%%%%%%%%%%%%%%%%%%%%%+                  ",
"        %%%%%%%%%%%%%%%%%%%%%%%%%%%%        +%%%%%%%%%%%%%%%%%%%%%%%%%%%$        %%%%%%%%%%%%%%%%%%%%%%%%%%%%@                  ",
"        %%%%%%%%%%%%%%%%%%%%%%%%%%%%        +%%%%%%%%%%%%%%%%%%%%%%%%%%%$        %%%%%%%%%%%%%%%%%%%%%%%%%%%%=                  ",
"        @%%%%%%%%%%%%%%%%%%%%%%%%%%%        +%%%%%%%%%%%%%%%%%%%%%%%%%%%#        %%%%%%%%%%%%%%%%%%%%%%%%%%%%=                  ",
"        @%%%%%%%%%%%%%%%%%%%%%%%%%%%        +%%%%%%%%%%%%%%%%%%%%%%%%%%%@        %%%%%%%%%%%%%%%%%%%%%%%%%%%%=                  ",
"        @%%%%%%%%%%%%%%%%%%%%%%%%%%%        +%%%%%%%%%%%%%%%%%%%%%%%%%%%+        %%%%%%%%%%%%%%%%%%%%%%%%%%%%=                  ",
"        @%%%%%%%%%%%%%%%%%%%%%%%%%%%        @&%%%%%%%%%%%%%%%%%%%%%%%%%%+        %%%%%%%%%%%%%%%%%%%%%%%%%%%%=                  ",
"        @%%%%%%%%%%%%%%%%%%%%%%%%%%%        #&%%%%%%%%%%%%%%%%%%%%%%%%%%+        %%%%%%%%%%%%%%%%%%%%%%%%%%%%@                  ",
"        %%%%%%%%%%%%%%%%%%%%%%%%%%%%        $&%%%%%%%%%%%%%%%%%%%%%%%%%%+        %%%%%%%%%%%%%%%%%%%%%%%%%%%%+                  ",
"        %%%%%%%%%%%%%%%%%%%%%%%%%%%%        $&%%%%%%%%%%%%%%%%%%%%%%%%%%+        %%%%%%%%%%%%%%%%%%%%%%%%%%%%+                  ",
"        %%%%%%%%%%%%%%%%%%%%%%%%%%%%        $&%%%%%%%%%%%%%%%%%%%%%%%%%%+        &%%%%%%%%%%%%%%%%%%%%%%%%%%%+                  ",
"        %%%%%%%%%%%%%%%%%%%%%%%%%%%%        #%%%%%%%%%%%%%%%%%%%%%%%%%%%+        &%%%%%%%%%%%%%%%%%%%%%%%%%%%+                  ",
"        %%%%%%%%%%%%%%%%%%%%%%%%%%%%        @%%%%%%%%%%%%%%%%%%%%%%%%%%%+        &%%%%%%%%%%%%%%%%%%%%%%%%%%%+                  ",
"        %%%%%%%%%%%%%%%%%%%%%%%%%%%%        +%%%%%%%%%%%%%%%%%%%%%%%%%%%+        &%%%%%%%%%%%%%%%%%%%%%%%%%%%+                  ",
"        %%%%%%%%%@@@@@%%%%%%%%%%%%%%        +%%%%%%%%%%%%@@@@@%%%%%%%%%%+        @%%%%%%%%%%%%%%%@@@@@%%%%%%%+                  ",
"                                                                                                                                ",
"                                                                                                                                ",
"                                                                                                                                ",
"                                                                                                                                ",
"                                                                                                                                ",
"                                                                                                                                ",
"                                                                                                                                "};
