/* XPM */
static char * bitpie_xpm[] = {
"32 32 494 2",
"  	c None",
". 	c #93BDC1",
"+ 	c #88B3B6",
"@ 	c #89B6BB",
"# 	c #89B6BA",
"$ 	c #88B2B6",
"% 	c #93BCC0",
"& 	c #8CB9BD",
"* 	c #81B1B6",
"= 	c #7BAFB5",
"- 	c #70A8AE",
"; 	c #70A7AD",
"> 	c #6FA7AC",
", 	c #6FA6AC",
"' 	c #7AADB2",
") 	c #7FAEB3",
"! 	c #8BB6B9",
"~ 	c #88B4B9",
"{ 	c #7FB2B8",
"] 	c #71AAB0",
"^ 	c #73ABB1",
"/ 	c #74ACB2",
"( 	c #74ABB1",
"_ 	c #75ACB1",
": 	c #74AAB0",
"< 	c #73AAAF",
"[ 	c #72A9AE",
"} 	c #71A7AD",
"| 	c #6EA6AB",
"1 	c #7CAEB3",
"2 	c #85B0B4",
"3 	c #80B1B6",
"4 	c #73ABB2",
"5 	c #75ADB3",
"6 	c #75ADB4",
"7 	c #77AEB4",
"8 	c #77AFB5",
"9 	c #78AFB6",
"0 	c #7AB0B7",
"a 	c #79B0B6",
"b 	c #78B0B5",
"c 	c #79AFB5",
"d 	c #77AEB3",
"e 	c #75ACB2",
"f 	c #74ABB0",
"g 	c #72A8AE",
"h 	c #71A8AD",
"i 	c #6FA5AA",
"j 	c #7CABAF",
"k 	c #7DB3B9",
"l 	c #74ADB4",
"m 	c #76AFB5",
"n 	c #77AFB6",
"o 	c #79B1B7",
"p 	c #7BB3B9",
"q 	c #7AB2B9",
"r 	c #77B1B7",
"s 	c #8EBEC3",
"t 	c #9AC5C9",
"u 	c #9AC4C9",
"v 	c #8DBDC1",
"w 	c #75AEB4",
"x 	c #77AFB4",
"y 	c #78AEB3",
"z 	c #75ABB1",
"A 	c #72A9AF",
"B 	c #71A7AC",
"C 	c #6EA4AA",
"D 	c #79ABAF",
"E 	c #7BB1B7",
"F 	c #78B0B7",
"G 	c #7AB2B8",
"H 	c #79B2B9",
"I 	c #94C1C7",
"J 	c #D6E7EA",
"K 	c #FFFFFF",
"L 	c #D5E6E8",
"M 	c #92BEC3",
"N 	c #75ADB2",
"O 	c #76ABB1",
"P 	c #73A9AD",
"Q 	c #70A7AB",
"R 	c #6FA4A9",
"S 	c #76A8AC",
"T 	c #7AADB3",
"U 	c #74ABB2",
"V 	c #78AFB5",
"W 	c #7DB4BA",
"X 	c #D4E6E8",
"Y 	c #FCFDFD",
"Z 	c #E5EEEF",
"` 	c #E4EEEF",
" .	c #FEFEFE",
"..	c #D3E5E6",
"+.	c #79AEB3",
"@.	c #76ABB0",
"#.	c #72A7AC",
"$.	c #6FA5A9",
"%.	c #6DA2A6",
"&.	c #74A4A7",
"*.	c #76A4A9",
"=.	c #73AAB0",
"-.	c #77ADB4",
";.	c #79B1B6",
">.	c #82B6BC",
",.	c #F2F7F8",
"'.	c #C2D9DB",
").	c #85B5BA",
"!.	c #6DA7AD",
"~.	c #73ACB1",
"{.	c #6CA6AB",
"].	c #84B3B7",
"^.	c #C2D7DA",
"/.	c #FFFEFF",
"(.	c #7EB0B5",
"_.	c #75A9AE",
":.	c #71A5A9",
"<.	c #6EA2A7",
"[.	c #6CA1A5",
"}.	c #719CA0",
"|.	c #73A7AD",
"1.	c #72AAB0",
"2.	c #78B0B6",
"3.	c #EEF5F6",
"4.	c #F6F9F9",
"5.	c #84B4B8",
"6.	c #7AB0B6",
"7.	c #79AFB4",
"8.	c #87B7BC",
"9.	c #77ADB2",
"0.	c #82B0B5",
"a.	c #EEF4F5",
"b.	c #74A9AE",
"c.	c #72A7AB",
"d.	c #6EA3A6",
"e.	c #6CA0A4",
"f.	c #6D9EA1",
"g.	c #6B969B",
"h.	c #C4DCDE",
"i.	c #F9FAFB",
"j.	c #79ADB2",
"k.	c #7AB0B5",
"l.	c #76ACB1",
"m.	c #75ABB0",
"n.	c #9FC4C7",
"o.	c #A0C4C6",
"p.	c #74AAAE",
"q.	c #74A9AD",
"r.	c #77ACB0",
"s.	c #77A9AE",
"t.	c #C2D9DA",
"u.	c #72A6AB",
"v.	c #6FA3A6",
"w.	c #6C9FA3",
"x.	c #6A9EA1",
"y.	c #668E91",
"z.	c #6C9DA2",
"A.	c #70A5AA",
"B.	c #7FB1B6",
"C.	c #8FBABD",
"D.	c #71A7AB",
"E.	c #A4C5C8",
"F.	c #A6C6C9",
"G.	c #70A5A9",
"H.	c #70A4A8",
"I.	c #72A6AA",
"J.	c #76AAAE",
"K.	c #8DB5B8",
"L.	c #7BABAE",
"M.	c #70A4A7",
"N.	c #6C9FA2",
"O.	c #699C9E",
"P.	c #669497",
"Q.	c #70A7AA",
"R.	c #6FA4A8",
"S.	c #71A6AB",
"T.	c #76AAAF",
"U.	c #BAD4D6",
"V.	c #DBE7E8",
"W.	c #73AAAE",
"X.	c #74A8AD",
"Y.	c #71A5AA",
"Z.	c #ACCACC",
"`.	c #AECBCD",
" +	c #6EA2A6",
".+	c #6DA1A5",
"++	c #6EA1A5",
"@+	c #71A4A8",
"#+	c #D9E5E6",
"$+	c #B7D1D2",
"%+	c #70A2A6",
"&+	c #6C9EA0",
"*+	c #689A9D",
"=+	c #6A9C9E",
"-+	c #6EA3A7",
";+	c #73A6AB",
">+	c #72A9AC",
",+	c #E4EEEE",
"'+	c #A2C4C7",
")+	c #76ABAE",
"!+	c #B5CFD1",
"~+	c #B7D0D2",
"{+	c #70A3A6",
"]+	c #6DA0A4",
"^+	c #6B9EA1",
"/+	c #6DA0A3",
"(+	c #72A5A8",
"_+	c #9FC1C2",
":+	c #E2ECED",
"<+	c #6B9FA1",
"[+	c #6C9DA0",
"}+	c #68999B",
"|+	c #66989A",
"1+	c #5F898C",
"2+	c #6CA1A4",
"3+	c #73A6AA",
"4+	c #6EA4A8",
"5+	c #7FAFB2",
"6+	c #75A8AB",
"7+	c #6B9FA2",
"8+	c #6B9EA2",
"9+	c #6DA1A4",
"0+	c #6EA2A5",
"a+	c #BDD4D5",
"b+	c #BFD4D6",
"c+	c #6EA1A4",
"d+	c #6D9FA1",
"e+	c #699B9E",
"f+	c #6B9D9F",
"g+	c #6FA1A3",
"h+	c #7AA7AA",
"i+	c #669A9C",
"j+	c #6B9C9E",
"k+	c #679799",
"l+	c #659597",
"m+	c #598081",
"n+	c #7EABAE",
"o+	c #92BABC",
"p+	c #8FB8BA",
"q+	c #94BBBD",
"r+	c #93BABC",
"s+	c #80ACAF",
"t+	c #6B9EA0",
"u+	c #6A9C9F",
"v+	c #6B9DA0",
"w+	c #6C9FA1",
"x+	c #C5D8D9",
"y+	c #699A9C",
"z+	c #67999B",
"A+	c #6D9EA0",
"B+	c #6F9FA1",
"C+	c #639798",
"D+	c #6A9A9C",
"E+	c #669696",
"F+	c #639394",
"G+	c #618F90",
"H+	c #608F91",
"I+	c #6A9D9F",
"J+	c #689A9C",
"K+	c #DFE9E9",
"L+	c #FDFEFE",
"M+	c #E7EEEE",
"N+	c #6A9B9D",
"O+	c #699B9D",
"P+	c #68999C",
"Q+	c #A4C0C1",
"R+	c #80AAAC",
"S+	c #68999A",
"T+	c #669798",
"U+	c #68989A",
"V+	c #6C9C9E",
"W+	c #6F9FA0",
"X+	c #629496",
"Y+	c #689898",
"Z+	c #649394",
"`+	c #629191",
" @	c #598685",
".@	c #476869",
"+@	c #699C9D",
"@@	c #6B9C9D",
"#@	c #65989B",
"$@	c #DAE5E6",
"%@	c #FBFCFD",
"&@	c #E2EAEB",
"*@	c #679899",
"=@	c #669698",
"-@	c #679798",
";@	c #659698",
">@	c #93B2B3",
",@	c #FAFCFC",
"'@	c #6F9D9E",
")@	c #669697",
"!@	c #689798",
"~@	c #6C9B9C",
"{@	c #89AFB0",
"]@	c #EFF3F4",
"^@	c #639495",
"/@	c #669596",
"(@	c #629090",
"_@	c #426160",
":@	c #659697",
"<@	c #6B9B9D",
"[@	c #659798",
"}@	c #D7E3E3",
"|@	c #DFE8E9",
"1@	c #669899",
"2@	c #6B9B9C",
"3@	c #649496",
"4@	c #649495",
"5@	c #659496",
"6@	c #799FA0",
"7@	c #E5EDED",
"8@	c #649494",
"9@	c #659495",
"0@	c #679797",
"a@	c #6B9A9B",
"b@	c #B7CECF",
"c@	c #F8FAFB",
"d@	c #C5D6D7",
"e@	c #649291",
"f@	c #608E8D",
"g@	c #5E8C8C",
"h@	c #5C8A8A",
"i@	c #689799",
"j@	c #679697",
"k@	c #69999A",
"l@	c #649393",
"m@	c #629192",
"n@	c #639192",
"o@	c #639293",
"p@	c #659494",
"q@	c #6A9493",
"r@	c #82A5A5",
"s@	c #669494",
"t@	c #689797",
"u@	c #6A999A",
"v@	c #F2F7F7",
"w@	c #F8FBFB",
"x@	c #8EAFAF",
"y@	c #669493",
"z@	c #618E8E",
"A@	c #5E8B8A",
"B@	c #578180",
"C@	c #4B7070",
"D@	c #619090",
"E@	c #639292",
"F@	c #659394",
"G@	c #659393",
"H@	c #639191",
"I@	c #618F8F",
"J@	c #628F8F",
"K@	c #62908F",
"L@	c #659292",
"M@	c #679595",
"N@	c #659595",
"O@	c #C4D7D7",
"P@	c #F0F5F6",
"Q@	c #E1EAEA",
"R@	c #5E8D8C",
"S@	c #628F8E",
"T@	c #5F8B89",
"U@	c #5D8987",
"V@	c #466968",
"W@	c #608F8E",
"X@	c #5F8C8C",
"Y@	c #5F8D8C",
"Z@	c #618F8E",
"`@	c #A5C0C0",
" #	c #619190",
".#	c #669393",
"+#	c #63908F",
"@#	c #649392",
"##	c #B1CACA",
"$#	c #EEF5F7",
"%#	c #F2F8FA",
"&#	c #7A9E9D",
"*#	c #64908F",
"=#	c #5B8785",
"-#	c #5B8885",
";#	c #486C6B",
">#	c #5D8A88",
",#	c #608D8B",
"'#	c #E9F2F4",
")#	c #C9DADB",
"!#	c #719D9B",
"~#	c #659392",
"{#	c #669392",
"]#	c #659291",
"^#	c #669292",
"/#	c #649190",
"(#	c #729C9A",
"_#	c #E9F3F4",
":#	c #EDF5F7",
"<#	c #96B2B1",
"[#	c #628E8D",
"}#	c #5B8784",
"|#	c #5A8582",
"1#	c #446665",
"2#	c #5A8685",
"3#	c #5C8886",
"4#	c #5D8988",
"5#	c #5E8A89",
"6#	c #8DAAAA",
"7#	c #EAF3F5",
"8#	c #E2EEF0",
"9#	c #A2BEBD",
"0#	c #8FB0B0",
"a#	c #8EB0AF",
"b#	c #A1BEBD",
"c#	c #C5D8D8",
"d#	c #8FABAA",
"e#	c #5E8A88",
"f#	c #5E8A87",
"g#	c #5B8684",
"h#	c #598380",
"i#	c #57817E",
"j#	c #314B49",
"k#	c #5C8885",
"l#	c #5A8683",
"m#	c #5E8987",
"n#	c #608C8A",
"o#	c #6A908F",
"p#	c #C0D2D2",
"q#	c #E9F3F6",
"r#	c #DFECEE",
"s#	c #E0ECEE",
"t#	c #E9F4F6",
"u#	c #608B89",
"v#	c #5D8885",
"w#	c #5A8481",
"x#	c #59827F",
"y#	c #588380",
"z#	c #2F4745",
"A#	c #3E5F5D",
"B#	c #5A8482",
"C#	c #598381",
"D#	c #5B8582",
"E#	c #5D8785",
"F#	c #608B88",
"G#	c #698F8D",
"H#	c #97B1B1",
"I#	c #B5C9C9",
"J#	c #B5C8C9",
"K#	c #97B1B0",
"L#	c #698D8B",
"M#	c #5F8986",
"N#	c #57807D",
"O#	c #57817D",
"P#	c #3C5B59",
"Q#	c #395654",
"R#	c #588280",
"S#	c #5C8683",
"T#	c #5E8885",
"U#	c #608A87",
"V#	c #5C8784",
"W#	c #5A8583",
"X#	c #5D8784",
"Y#	c #5C8481",
"Z#	c #567E7A",
"`#	c #56807C",
" $	c #375351",
".$	c #263D3B",
"+$	c #4F7874",
"@$	c #57807C",
"#$	c #567F7B",
"$$	c #58817D",
"%$	c #5A837F",
"&$	c #5A847F",
"*$	c #59817E",
"=$	c #557D79",
"-$	c #557E79",
";$	c #4E7571",
">$	c #263C39",
",$	c #324C4A",
"'$	c #507A75",
")$	c #557E7A",
"!$	c #567D7A",
"~$	c #567D79",
"{$	c #557D78",
"]$	c #547C78",
"^$	c #547D78",
"/$	c #4F7873",
"($	c #314B48",
"_$	c #2B4340",
":$	c #35504D",
"<$	c #49706C",
"[$	c #4F7773",
"}$	c #527A75",
"|$	c #4F7772",
"1$	c #49706B",
"2$	c #34504C",
"3$	c #2A423F",
"4$	c #111F1D",
"5$	c #111E1D",
"                            . + @ # $ %                         ",
"                      & * = - ; > , , , ' ) !                   ",
"                  ~ { ] ^ / ( ( / _ : < [ } | 1 2               ",
"                3 4 5 6 7 8 9 0 a b c d e f g h i j             ",
"              k l m n o p q r s t u v w x y z A B C D           ",
"            E l m F G H I J K K K K K K L M N O P Q R S         ",
"          T U w V G W X K K K Y Z ` Y K  .K ..+.@.#.$.%.&.      ",
"        *.=.U -.;.>.,.K K '.).!./ ~.{.].^.K /.,.(._.:.<.[.}.    ",
"        |.1.( 7 2.3. .4.5.a 6.7.8.8.y +.9.0.4. .a.b.c.d.e.f.    ",
"      g.} [ f d h.K i.j.k.l.m.: n.o.p.q.b.r.s.i.K t.u.v.w.x.y.  ",
"      z.A.#.@.B.K K C.+.b.#.D.#.E.F.u.G.H.I.J.K.K K L.M.N.O.P.  ",
"      Q.R.S.T.U.K V.W.X.G.R.R Y.Z.`.G. +.+++@+R.#+K $+%+&+*+=+  ",
"       +-+;+>+,+K '+)+:.%..+ +H.!+~+{+]+^+^+/+(+_+K :+<+[+}+|+  ",
"    1+2+ +3+4+K K 5+6+{+7+8+9+0+a+b+c+d+=+e+f+g+h+K K i+j+k+l+m+",
"    *+x.n+o+p+K K q+r+s+t+u+v+w+x+x+N.f+y+z+y+A+B+K K C+D+E+F+G+",
"    H+I+J+K+K L+L+K M+N+O+P+y+=+Q+K R+j+S+T+U+V+W+K K X+Y+Z+`+ @",
"    .@+@@@#@$@%@%@&@}+@@*@=@-@U+;@>@,@'@-@)@!@~@{@K ]@^@/@(@`+_@",
"      :@*@<@[@}@|@1@2@-@3@4@Z+5@E+T+6@7@8@9@0@a@b@c@d@E+e@f@g@  ",
"      h@Z+E+i@/@j@k@0@9@l@m@`+`+n@o@p@q@r@s@t@u@v@w@x@y@z@A@B@  ",
"      C@D@(@E@l@F@F@p@G@l@H@(@I@I@J@K@H@L@M@N@O@P@Q@R@S@T@U@V@  ",
"        W@X@Y@f@Z@H@G@`@ #.#e@+#K@S@+#e@s@@###$#%#&#*#T@=#-#    ",
"        ;#>#>#A@,#f@V.'#)#!#~#{#]#]#^#/#(#)#_#:#<#[#T@}#|#1#    ",
"          2#=#3#4#5#6#7#8#7#x+9#0#a#b#c#7#8#7#d#e#f#g#h#i#      ",
"          j#k#l#g#m#n#o#p#q#r#s#8#8#s#r#t#p#o#u#v#w#x#y#z#      ",
"            A#B#C#D#E#F#=#G#H#I#p#p#J#K#L#l#M#D#x#N#O#P#        ",
"              Q#h#i#R#w#S#T#U#V#W#W#V#M#X#Y#x#N#Z#`# $          ",
"                .$+$@$#$@$$$x#%$&$%$%$*$N##$=$-$;$>$            ",
"                    ,$'$)$=$=$=$!$~${$]$]$^$/$($                ",
"                        _$:$<$[$}$}$|$1$2$3$                    ",
"                                4$5$                            ",
"                                                                ",
"                                                                "};
