/* XPM */
static char *bitdust[] = {
/* columns rows colors chars-per-pixel */
"32 32 162 2 ",
"   c #010300",
".  c #0E0000",
"X  c #140000",
"o  c #1B0000",
"O  c #1C0C01",
"+  c #071402",
"@  c #081102",
"#  c #0A1B03",
"$  c #151300",
"%  c #1E1B00",
"&  c #01111C",
"*  c #230000",
"=  c #2C0000",
"-  c #310000",
";  c #3B0000",
":  c #251101",
">  c #2F1401",
",  c #341701",
"<  c #3E1B01",
"1  c #3C1E08",
"2  c #0E2805",
"3  c #102D05",
"4  c #123306",
"5  c #232301",
"6  c #2E2900",
"7  c #332E00",
"8  c #3A3400",
"9  c #303A18",
"0  c #011C2E",
"q  c #01253C",
"w  c #420000",
"e  c #4B0000",
"r  c #5B0000",
"t  c #471F02",
"y  c #630000",
"u  c #7B0000",
"i  c #4B2001",
"p  c #522402",
"a  c #592702",
"s  c #433C00",
"d  c #6A2E03",
"f  c #6F370D",
"g  c #733203",
"h  c #7F3703",
"j  c #75370A",
"k  c #7B3908",
"l  c #633715",
"z  c #693611",
"x  c #164007",
"c  c #184408",
"v  c #1C4F09",
"b  c #1D5309",
"n  c #2F5F09",
"m  c #335A07",
"M  c #395806",
"N  c #22600B",
"B  c #2D660A",
"V  c #276E0C",
"C  c #29760D",
"Z  c #2D7C0E",
"A  c #2A493C",
"S  c #4B4300",
"D  c #574E00",
"F  c #594F00",
"G  c #405705",
"H  c #545E03",
"J  c #51500D",
"K  c #5E6102",
"L  c #6E6200",
"P  c #6B6902",
"I  c #676008",
"U  c #756B06",
"Y  c #796C00",
"T  c #797201",
"R  c #012841",
"E  c #022F4C",
"W  c #023557",
"Q  c #1A454C",
"!  c #144557",
"~  c #224642",
"^  c #0F4762",
"/  c #0A4A6D",
"(  c #054A77",
")  c #074E78",
"_  c #810000",
"`  c #930000",
"'  c #9C0000",
"]  c #A30000",
"[  c #AB0000",
"{  c #B40000",
"}  c #BD0000",
"|  c #823A07",
" . c #8B3D04",
".. c #C40000",
"X. c #CC0000",
"o. c #D00000",
"O. c #964103",
"+. c #9A4202",
"@. c #A34602",
"#. c #A54804",
"$. c #AF4C04",
"%. c #B44E04",
"&. c #BC5204",
"*. c #827502",
"=. c #877A00",
"-. c #8A7B00",
";. c #C85705",
":. c #D15B05",
">. c #D95F05",
",. c #DF6105",
"<. c #E36405",
"1. c #EA6606",
"2. c #F36A06",
"3. c #FF6F06",
"4. c #FF7006",
"5. c #2F8A10",
"6. c #318D10",
"7. c #329110",
"8. c #369D12",
"9. c #3BA913",
"0. c #3DB114",
"q. c #3FB915",
"w. c #42BC15",
"e. c #45C516",
"r. c #46C816",
"t. c #8E8000",
"y. c #918201",
"u. c #9E8D00",
"i. c #A99600",
"p. c #AE9B00",
"a. c #B49F00",
"s. c #BBA600",
"d. c #BEA900",
"f. c #C6AF00",
"g. c #CFB800",
"h. c #D2BC00",
"j. c #D7C000",
"k. c #DCC400",
"l. c #E3CB00",
"z. c #E8CF00",
"x. c #EDD400",
"c. c #F0D700",
"v. c #F2D800",
"b. c #045284",
"n. c #035489",
"m. c #03588F",
"M. c #025991",
"N. c #015C9A",
"B. c #0161A0",
"V. c #0066A8",
"C. c #006CB3",
"Z. c #0072BD",
"A. c #0476C1",
"S. c #0279C6",
"D. c #0482D4",
"F. c #0283DA",
"G. c #048AE2",
"H. c #038DE8",
"J. c #0390ED",
"K. c #0495F3",
"L. c #059BFD",
"P. c None",
/* pixels */
"P.P.P.P.P.P.P.P.P.P.P.P.P.P.P.P.P.P.P.P.P.P.P.P.P.P.P.P.P.P.P.P.",
"P.P.P.P.P.P.P.P.P.P.P.P.P.P.P.P.P.P.P.P.P.P.P.P.P.P.P.P.P.P.P.P.",
"P.P.P.P.P.P.P.P.P.P.& q W 0 i d p , P.P.P.P.P.P.P.P.P.P.P.P.P.P.",
"P.P.P.P.P.P.P.P.q b.Z.G.L.( #.3.2.,.%.g > P.P.P.P.P.P.P.P.P.P.P.",
"P.P.P.P.P.P.0 m.G.L.L.L.L.b.@.4.4.4.4.3.:.g O P.P.P.P.P.P.P.P.P.",
"P.P.P.P.P.E S.L.L.L.L.L.L.n.+.4.3.3.3.3.4.2.#.> P.P.P.P.P.P.P.P.",
"P.P.P.P.0 D.L.L.L.L.L.L.L.M.O.4.3.3.3.3.3.3.4.&., P.P.P.P.P.P.P.",
"P.P.P.S J b.K.L.L.L.L.L.L.N. .4.3.3.3.3.3.3.3.4.%.: P.P.P.P.P.P.",
"P.P.6 d.k.I ) K.L.L.L.L.L.B. .4.3.3.3.3.3.3.3.3.3. .P.P.P.P.P.P.",
"P.P.=.c.c.l.U / J.L.L.L.L.V.| 4.3.3.3.3.4.3.3.3.3.1.i P.P.P.P.P.",
"P.8 h.c.x.x.z.*.^ H.L.L.L.C.k 3.3.3.3.3.3.3.3.3.3.4.@.P.P.P.P.P.",
"P.Y x.x.x.x.c.z.-.! G.L.L.C.j 3.3.3.3.3.3.3.3.4.3.4.<.< P.P.P.P.",
"$ p.c.x.x.x.x.x.x.u.Q F.L.Z.f 3.3.3.3.3.4.4.4.4.1.;.O.> P.P.P.P.",
"7 h.c.x.x.x.x.x.x.x.i.~ F.S.z 3.3.4.4.4.2.:.#.g i O P.P.P.o - . ",
"S l.x.x.x.x.x.x.x.x.c.a.A N.l 3.2.>.$.h p : P.P.P.o ; r _ ] [ - ",
"D z.x.x.x.x.x.x.x.x.x.c.d.9 1  .a > P.P.P.X ; r _ ] } o.o.o...w ",
"D z.x.x.x.x.x.x.x.x.x.x.v.-.@   P.P.o r u ] } X.o.X.X.X.X.X...e ",
"S l.x.x.x.x.x.x.x.x.x.x.z.H 5.v P.P.o u X.o.X.X.X.X.X.X.X.X...e ",
"8 j.x.x.x.x.x.x.x.x.x.c.p.B e.w.V # P.P.r { o.X.X.X.X.X.X.X...; ",
"% s.x.x.x.x.x.x.x.x.x.z.K 8.e.e.e.6.4 P.P.; ' o.X.X.X.X.X.o.{ = ",
"P.-.v.c.x.x.x.x.x.x.c.s.B e.e.e.e.r.9.v P.P.* u ..X.X.X.X.X.` . ",
"P.S k.c.x.x.x.x.x.x.x.P 7.r.e.e.e.e.e.w.V # P.P.r { o.X.X.X.y P.",
"P.P.u.c.x.x.x.x.x.c.f.m w.e.e.e.e.e.e.e.e.6.4 P.P.; ' o.o.[ = P.",
"P.P.s h.c.x.x.x.x.c.U 5.r.e.e.e.e.e.e.e.e.e.9.b P.P.* u ..y P.P.",
"P.P.P.L z.c.x.x.c.g.M q.e.e.e.e.e.e.e.e.e.e.r.7.+ P.P.P.w o P.P.",
"P.P.P.P.*.z.c.x.c.-.Z r.e.e.e.e.e.e.e.e.e.r.8.4 P.P.P.P.P.P.P.P.",
"P.P.P.P.$ Y k.v.j.G 0.e.e.e.e.e.e.e.e.e.e.6.3 P.P.P.P.P.P.P.P.P.",
"P.P.P.P.P.P.D s.y.Z r.e.e.e.e.e.e.e.e.9.N # P.P.P.P.P.P.P.P.P.P.",
"P.P.P.P.P.P.P.5 5 C 0.e.e.e.e.w.0.7.N 2 P.P.P.P.P.P.P.P.P.P.P.P.",
"P.P.P.P.P.P.P.P.P.P.2 4 v b b c 3 @ P.P.P.P.P.P.P.P.P.P.P.P.P.P.",
"P.P.P.P.P.P.P.P.P.P.P.P.P.P.P.P.P.P.P.P.P.P.P.P.P.P.P.P.P.P.P.P.",
"P.P.P.P.P.P.P.P.P.P.P.P.P.P.P.P.P.P.P.P.P.P.P.P.P.P.P.P.P.P.P.P."
};
