<svg id="Layer_1" data-name="Layer 1" xmlns="http://www.w3.org/2000/svg" viewBox="0 0 701.74 303"><g style="opacity:0.15000000596046448"><path d="M720.7,121c-7.24,23.43-47,46.07-97.9,53.76-46.42,7-88.33-.49-106.64-17.1a24.44,24.44,0,0,0-.83,11.61c4.78,27.15,56.73,41.89,116,32.93S734.84,164,730.06,136.84C729.05,130.94,725.78,125.62,720.7,121Z" transform="translate(-31 -30.19)" style="fill:#5fa1ee"/><path d="M669,250.85c40.07-12,68.34-40.64,63.16-64a25.88,25.88,0,0,0-7.55-13.14c-3.33,20.94-29,43.49-63.41,53.78-31.36,9.39-60.64,5.81-74.37-7.38a27.08,27.08,0,0,0,.25,10.19C592.23,253.66,628.9,262.85,669,250.85Z" transform="translate(-31 -30.19)" style="fill:#b364c2"/><path d="M624,278.53a60.18,60.18,0,0,1,1.47,6.78c2.56,16.58-2.26,31.88-11.52,40.73l5.94-1.52c44-11.28,68.77-34,60.75-53.59a115.18,115.18,0,0,1-12.74,4.6C651.75,280.29,636.28,281.13,624,278.53Z" transform="translate(-31 -30.19)" style="fill:#b364c2"/><path d="M719.93,67.37C705.76,93.44,651.17,112.86,586,112.86c-59.44,0-110.07-16.15-129.27-38.77a27.77,27.77,0,0,0-3.59,13.41c0,32.53,61.57,58.9,137.52,58.9S728.18,120,728.18,87.5C728.18,80.43,725.26,73.65,719.93,67.37Z" transform="translate(-31 -30.19)" style="fill:#5fa1ee"/><path d="M718.57,86.54c-11.48-15-55.68-26.19-108.46-26.19-48.14,0-89.14,9.3-104.69,22.32a12.67,12.67,0,0,1-2.9-7.72c0-18.72,49.86-33.9,111.36-33.9S725.25,56.23,725.25,75C725.29,79,722.93,82.92,718.57,86.54Z" transform="translate(-31 -30.19)" style="fill:#5fa1ee"/></g><g style="isolation:isolate"><g style="isolation:isolate"><path d="M316,168.86v76.46h-5.5V168.86H281.62V164h63.16v4.85Z" transform="translate(-31 -30.19)" style="fill:#f2f2f2"/></g><g style="isolation:isolate"><path d="M369.41,186.64c17.49,0,30.6,13.06,30.6,29.94s-13.11,29.94-30.6,29.94-30.59-13.06-30.59-29.94S351.93,186.64,369.41,186.64Zm0,54.91c14.37,0,25-10.9,25-25a25,25,0,0,0-50.06,0C344.38,230.65,355,241.55,369.41,241.55Z" transform="translate(-31 -30.19)" style="fill:#f2f2f2"/><path d="M419.3,197.3c2.88-7,10.78-10.66,17.55-10.66a21.69,21.69,0,0,1,7.78,1.2l-.48,5a20.64,20.64,0,0,0-7.42-1.08c-10.06,0-17.37,7.25-17.37,21v32.63h-5.63V187.84h5.57Z" transform="translate(-31 -30.19)" style="fill:#f2f2f2"/><path d="M505.83,210.11v35.21h-5.57v-33c0-14-7.06-20.6-20-20.6A21.48,21.48,0,0,0,459,212.93v32.39h-5.57V187.84H459V199.1c5.27-9,14.49-12.46,22.45-12.46C496,186.64,505.83,194.67,505.83,210.11Z" transform="translate(-31 -30.19)" style="fill:#f2f2f2"/><path d="M561.53,245.32V233.7c-4.49,8.45-14.49,12.82-23.35,12.82-11.08,0-19.22-6.17-19.22-16.47,0-11.31,10.6-17.66,24.49-17.66a58.88,58.88,0,0,1,18.08,2.87v-5.93c0-11-6.89-17.54-20.12-17.54a43.51,43.51,0,0,0-18.14,4.31l-.72-5.15c5.27-2.81,12.52-4.31,19.22-4.31,16.59,0,25.33,8.32,25.33,22.93v35.75Zm0-20.72v-4.67a52.61,52.61,0,0,0-18.32-2.87c-10.54,0-18.68,4.07-18.68,12.63,0,7.73,5.63,11.74,13.89,11.74C550.09,241.43,560.09,233.7,561.53,224.6Z" transform="translate(-31 -30.19)" style="fill:#f2f2f2"/><path d="M640.28,245.32h-5.51V232.63c-4.91,8.38-14.67,13.89-25.57,13.89-16.58,0-29.1-13.06-29.1-30s12.52-29.88,29.1-29.88c10.84,0,20.42,5.33,25.51,13.65V161h5.57Zm-54.61-28.8c0,14.37,10.12,25.09,24,25.09,14.61,0,25.45-11,25.45-25.09s-10.84-25-25.45-25C595.79,191.55,585.67,202.39,585.67,216.52Z" transform="translate(-31 -30.19)" style="fill:#f2f2f2"/><path d="M684.6,186.64c17.48,0,30.6,13.06,30.6,29.94s-13.12,29.94-30.6,29.94S654,233.46,654,216.58,667.12,186.64,684.6,186.64Zm0,54.91c14.37,0,25-10.9,25-25a25,25,0,0,0-50.06,0C659.57,230.65,670.23,241.55,684.6,241.55Z" transform="translate(-31 -30.19)" style="fill:#f2f2f2"/></g></g><g style="isolation:isolate"><g style="isolation:isolate"><path d="M567.09,279.47l10,26.74,9-27h3.12l-10.1,30.2h-3.9l-9.82-26.05-9.82,26.05h-3.9l-10.1-30.2h3.12l9,27,10-26.74Z" transform="translate(-31 -30.19)" style="fill:#f2f2f2"/></g><g style="isolation:isolate"><path d="M612.57,309.36v-6.1C610.21,307.69,605,310,600.3,310c-5.82,0-10.1-3.24-10.1-8.65,0-5.95,5.57-9.28,12.87-9.28a30.63,30.63,0,0,1,9.5,1.51v-3.12c0-5.76-3.62-9.22-10.57-9.22a22.76,22.76,0,0,0-9.54,2.27l-.37-2.71a22.43,22.43,0,0,1,10.1-2.26c8.71,0,13.31,4.37,13.31,12.05v18.78Zm0-10.89V296a27.56,27.56,0,0,0-9.63-1.51c-5.54,0-9.82,2.14-9.82,6.64,0,4.06,3,6.17,7.3,6.17C606.56,307.32,611.81,303.26,612.57,298.47Z" transform="translate(-31 -30.19)" style="fill:#f2f2f2"/><path d="M625.8,265.06h2.93v44.3H625.8Z" transform="translate(-31 -30.19)" style="fill:#f2f2f2"/></g><g style="isolation:isolate"><path d="M643.35,265.06h2.93v44.3h-2.93Z" transform="translate(-31 -30.19)" style="fill:#f2f2f2"/></g><g style="isolation:isolate"><path d="M683.89,307.16a21.27,21.27,0,0,1-11,2.83c-10.23,0-17.28-6.42-17.28-15.73,0-9,6.48-15.73,15.58-15.73,10.48,0,15.73,8.05,14.47,16.67H658.72c.41,8.25,7.3,12.08,14.09,12.08a19.33,19.33,0,0,0,10.51-2.92ZM683,292.87c-.35-6.6-4.5-11.64-11.65-11.64a12.23,12.23,0,0,0-12.55,11.64Z" transform="translate(-31 -30.19)" style="fill:#f2f2f2"/></g><g style="isolation:isolate"><path d="M692.9,281.61v18.56c0,5.23,2.68,7.27,6.14,7.27a12.93,12.93,0,0,0,5.22-.91l.38,2.52a18.09,18.09,0,0,1-5.82.94c-5.16,0-8.87-2.83-8.87-8.87V281.61h-6v-2.45h5.91v-9.73h3v9.73h10.64v2.45Z" transform="translate(-31 -30.19)" style="fill:#f2f2f2"/></g></g><g style="opacity:0.6000000238418579;isolation:isolate"><path d="M288.7,86.49h23.05c9,0,15.92,4.31,15.92,14a11.48,11.48,0,0,1-7.21,11.13c6.77,1.78,11.05,6.46,11.05,14.06,0,8.23-5.55,14.61-17.82,14.61h-25ZM292.35,111h19.32C318.76,111,324,107,324,100.54c0-6.13-3.72-10.84-12.11-10.84H292.35Zm22.49,3.21H292.35v22.88h22.49c7.4,0,13-3.6,13-11.36C327.86,119.19,323.86,114.17,314.84,114.17Z" transform="translate(-31 -30.19)" style="fill:#f2f2f2"/><path d="M339.12,89.5a3,3,0,1,1,3,3A3,3,0,0,1,339.12,89.5Zm1.19,12.75H344v38h-3.68Z" transform="translate(-31 -30.19)" style="fill:#f2f2f2"/><path d="M370.19,120c7.64,1.42,11.05,4.75,11.05,10.25,0,6.77-5.55,10.85-14.73,10.85a33,33,0,0,1-13.82-2.93l.59-3.44a28.82,28.82,0,0,0,12.87,2.93c7.33,0,11.28-2.38,11.28-7.13,0-4.08-2.61-6.14-10.33-7.52l-4.39-.8c-6.86-1.22-10.34-4.71-10.34-9.74,0-6.85,5.62-11,15-11a32.54,32.54,0,0,1,11.32,1.94l-.55,3.36a29.93,29.93,0,0,0-10.57-1.86c-7.41,0-11.37,2.42-11.37,7.21,0,3.68,2,5.54,8.55,6.81Z" transform="translate(-31 -30.19)" style="fill:#f2f2f2"/><path d="M421.88,111.12a16.15,16.15,0,0,1,15.2-9.66c9.27,0,15.57,5.26,15.57,15.52v23.28h-3.73V118.44c0-9.22-4.31-13.62-12.59-13.62A14,14,0,0,0,422.71,119v21.3h-3.6V118.44c0-9.22-4.4-13.62-12.67-13.62a14,14,0,0,0-13.62,14v21.42h-3.69v-38h3.69v7.4a16.12,16.12,0,0,1,14.37-8.19C414.44,101.46,419.86,104.74,421.88,111.12Z" transform="translate(-31 -30.19)" style="fill:#f2f2f2"/><path d="M463.23,125.53V102.25h3.68v21.81c0,9.23,4.67,13.63,13.23,13.63a14.21,14.21,0,0,0,14.05-14V102.25h3.69v38h-3.69v-7.44a16.87,16.87,0,0,1-14.84,8.23C469.72,141.05,463.23,135.75,463.23,125.53Z" transform="translate(-31 -30.19)" style="fill:#f2f2f2"/><path d="M515.12,105.34V128.7c0,6.57,3.36,9.14,7.72,9.14a16.21,16.21,0,0,0,6.57-1.14l.48,3.16a22.58,22.58,0,0,1-7.33,1.19c-6.49,0-11.16-3.56-11.16-11.16V105.34h-7.49v-3.09h7.45V90h3.76v12.24H528.5v3.09Z" transform="translate(-31 -30.19)" style="fill:#f2f2f2"/><path d="M569.94,117v23.28h-3.68V118.44c0-9.22-4.68-13.62-13.23-13.62a14.21,14.21,0,0,0-14.06,14v21.42h-3.68V84.51H539v25.18a16.87,16.87,0,0,1,14.85-8.23C563.45,101.46,569.94,106.76,569.94,117Z" transform="translate(-31 -30.19)" style="fill:#f2f2f2"/></g><path d="M233,131.18a100.87,100.87,0,0,1-41,81.24,97.79,97.79,0,0,1-8.34,5.52A100.9,100.9,0,0,1,82.08,219a52.75,52.75,0,0,1,23.35-31.58,62.11,62.11,0,0,0,54.25-.58,60.72,60.72,0,0,0,9.06-5.52,62,62,0,0,0,24.8-41.62,61,61,0,0,0,.61-8.53A62.18,62.18,0,0,0,132,69h0a62.18,62.18,0,0,0-62.14,62.2,61,61,0,0,0,.79,9.82,111.39,111.39,0,0,0-30.71,31.68A100.64,100.64,0,0,1,31,131.18v-101H132a101,101,0,0,1,101,101Z" transform="translate(-31 -30.19)" style="fill:#5fa1ee"/><path d="M224.52,191.6a111.56,111.56,0,0,1-30.07,30.75l-.95.63a64,64,0,0,1,.68,9.17A62.18,62.18,0,1,1,132,170h0a62,62,0,0,1,27.13,6.22l.46-.27a52.71,52.71,0,0,0,23.19-31.08A100.45,100.45,0,0,0,132,131.18h0a101,101,0,0,0-101,101v101H132a101,101,0,0,0,101-101h0A100.75,100.75,0,0,0,224.52,191.6Z" transform="translate(-31 -30.19)" style="fill:#b364c2"/></svg>