<svg version="1" xmlns="http://www.w3.org/2000/svg" width="533.333" height="533.333" viewBox="0 0 400.000000 400.000000"><path d="M109 103.8c0 46 .3 56.3 1.6 63.3 1.9 10.1 4.6 18.2 8.9 26.9l3.3 6.5-2.1 4c-3.7 7.2-7.7 19.4-9.2 28.2-1.2 6.9-1.5 19-1.5 62.5v53.9l58.8-.3c57.7-.4 58.8-.4 66.7-2.7 17.3-4.9 32.2-13.6 44.6-26 13-13 21.7-28.4 26.6-46.9 2.2-8.2 2.6-11.8 2.6-23.7 0-16.4-2.5-27.6-9.2-42l-4-8.5 3.5-7c7.7-15.6 11.2-35.1 9.3-52-1.9-16.9-7.1-31.5-16.1-45.3-13.8-21.1-34.1-35.6-59.3-42.4l-10-2.7-57.2-.4-57.3-.3v54.9zm175.5-9.3c5 4.9 10 11 11.3 13.5 1.2 2.5 1.7 3.6 1 2.6-7.3-10.7-15.7-19.5-25.8-26.9-2.4-1.7-2.4-1.7 1 0 1.9 1 7.6 5.8 12.5 10.8zm-63.7-2.9c22.2 4.5 40 21.2 45.7 42.9 1.4 5.6 2.2 22.2 1.1 25.5-.2.8-.7 2.7-1 4.2l-.6 2.7-5.6-3.4c-14.9-9-31.8-13.5-50.4-13.5-18.8 0-35.6 4.4-50.3 13.1-3.8 2.2-7 3.9-7.3 3.7-1.4-1.4-2.6-13.6-2.1-21.3 1.6-26.7 20.2-48.3 46.3-53.8 9.1-2 14.9-2 24.2-.1zm32.3 13.1c6.8 4.4 15.8 13.2 19.8 19.3 2 3.1 1.9 3.1-1-.5-5.5-6.7-15.8-16.4-19.7-18.5-2-1.1-4.8-2.9-6.2-4.1-3.2-2.7-1.1-1.6 7.1 3.8zm2.9 4.8c1.3 1.4 2.1 2.5 1.8 2.5-.2 0-1.5-1.1-2.8-2.5-1.3-1.4-2.1-2.5-1.8-2.5.2 0 1.5 1.1 2.8 2.5zm21 20.5c.6 1.1.8 2 .6 2-.3 0-1-.9-1.6-2-.6-1.1-.8-2-.6-2 .3 0 1 .9 1.6 2zm-118.7 37.5c-2.9 2.5-7.6 7.1-10.4 10.3-2.9 3.1-4.7 4.8-3.9 3.7.8-1.1 2.5-3.2 3.9-4.7 1.3-1.5 2.2-3 2-3.3-.6-.5-15.7 14.8-20.2 20.5l-2.8 3.5 1.8-3.4c3.1-5.8 17.2-19.9 25.7-25.6 4.4-3 8.3-5.5 8.6-5.5.2 0-1.9 2-4.7 4.5zm1 3.3c-2.3 2-6 5.7-8.3 8.2l-4.2 4.5 3.2-4.2c3.1-4.2 11.7-12.3 12.9-12.3.3.1-1.3 1.8-3.6 3.8zm34.7 9.7c0 .2-1 .9-2.2 1.5-2.2 1.1-2.2 1-.4-.4 2.1-1.7 2.6-1.9 2.6-1.1zm-8 5.3c-5.4 4.1-17 15.4-17 16.5 0 .5.8.3 1.8-.4 1.3-1-5 6.2-10.7 12.1-.2.3.6-1.3 1.9-3.5 6-10.2 13.1-18.1 21.9-24.4 5.4-3.8 6.9-4 2.1-.3zm39.4 6.9c3.3.8 8.2 2.6 11 4l5 2.5-3.8 2.3c-12.4 7.5-32.2 9.2-46.9 4.2-4.3-1.5-8.9-3.5-10.3-4.4l-2.6-1.7 3.4-1.7c13.8-7.4 28.4-9.2 44.2-5.2zM126 200c-.6 1.1-1.3 2-1.6 2-.2 0 0-.9.6-2s1.3-2 1.6-2c.2 0 0 .9-.6 2zm141.9 38.9c1.5 9.3 1.4 13.7-.5 22.9-4.3 21.1-21.5 39.2-42.4 44.8-8.5 2.2-22.7 2.2-30.5-.1-21-6-37.3-22.8-42.1-43.1-1.6-6.9-1.6-24.7 0-28.5.6-1.4 2.3-.8 11.4 3.7 23.4 11.8 49.9 14.2 74.2 6.8 8.2-2.5 21.4-8.6 25.5-11.8 1.1-.8 2.3-1.6 2.6-1.6.3 0 1.1 3.1 1.8 6.9zM257.4 289c-1 1.6-2 2.8-2.2 2.6-.4-.5 2.8-5.6 3.5-5.6.2 0-.4 1.3-1.3 3zm-8.8 12.2c-2 2.3-5.3 5.5-7.4 7.2-2 1.6-.6-.3 3.3-4.2 3.8-4 7.1-7.2 7.3-7.2.2 0-1.3 1.9-3.2 4.2zM237 311.4c0 .2-.8 1-1.7 1.7-1.6 1.3-1.7 1.2-.4-.4 1.3-1.6 2.1-2.1 2.1-1.3z"/><path d="M166.9 204.7c-1.3 1.6-1.2 1.7.4.4.9-.7 1.7-1.5 1.7-1.7 0-.8-.8-.3-2.1 1.3z"/></svg>